<?xml version="1.0" standalone="no"?>
<svg xmlns="http://www.w3.org/2000/svg" width="109.80000000000001" height="93.48" viewBox="0 0 109.80000000000001 93.48"><g fill="#a4c967" color="#a4c967" transform="translate(29.901 0) scale(0.5)"><svg width="100.0" height="100.0" x="0.0" y="0.0" viewBox="0 0 100 100"><g><polygon points="70,30 70,5 60,5 60,30 35,30 35,40 60,40 60,65 70,65 70,40 95,40 95,30  "></polygon><polygon points="15,5 5,5 5,94.9 5.1,94.9 5.1,95 95,95 95,85 15,85  "></polygon></g></svg></g><path fill="#295c3c" fill-rule="nonzero" d="M10.40 28.48Q7.28 28.48 4.42 27.48Q1.56 26.48 0 24.84L0 24.84L1.16 22.56Q2.68 24.08 5.20 25.02Q7.72 25.96 10.40 25.96L10.40 25.96Q14.16 25.96 16.04 24.58Q17.92 23.20 17.92 21L17.92 21Q17.92 19.32 16.90 18.32Q15.88 17.32 14.40 16.78Q12.92 16.24 10.28 15.60L10.28 15.60Q7.12 14.80 5.24 14.06Q3.36 13.32 2.02 11.80Q0.68 10.28 0.68 7.68L0.68 7.68Q0.68 5.56 1.80 3.82Q2.92 2.08 5.24 1.04Q7.56 0 11 0L11 0Q13.40 0 15.70 0.66Q18 1.32 19.68 2.48L19.68 2.48L18.68 4.84Q16.92 3.68 14.92 3.10Q12.92 2.52 11 2.52L11 2.52Q7.32 2.52 5.46 3.94Q3.60 5.36 3.60 7.60L3.60 7.60Q3.60 9.28 4.62 10.30Q5.64 11.32 7.18 11.86Q8.72 12.40 11.32 13.04L11.32 13.04Q14.40 13.80 16.30 14.54Q18.20 15.28 19.52 16.78Q20.84 18.28 20.84 20.84L20.84 20.84Q20.84 22.96 19.70 24.70Q18.56 26.44 16.20 27.46Q13.84 28.48 10.40 28.48L10.40 28.48ZM38.72 0Q44.16 0 47.30 3.18Q50.44 6.36 50.44 12.36L50.44 12.36L50.44 28.24L47.52 28.24L47.52 20L29.92 20L29.92 28.24L27.04 28.24L27.04 12.36Q27.04 6.36 30.18 3.18Q33.32 0 38.72 0L38.72 0ZM29.92 17.44L47.52 17.44L47.52 12.08Q47.52 7.40 45.20 5.02Q42.88 2.64 38.72 2.64L38.72 2.64Q34.56 2.64 32.24 5.02Q29.92 7.40 29.92 12.08L29.92 12.08L29.92 17.44ZM70.20 2.64Q66.08 2.64 64.06 4.50Q62.04 6.36 62.04 9.88L62.04 9.88L62.04 13.80L75.40 13.80L75.40 16.36L62.04 16.36L62.04 28.24L59.08 28.24L59.08 9.84Q59.08 5.24 61.96 2.62Q64.84 0 70.08 0L70.08 0Q75.16 0 78.24 2.20L78.24 2.20L77.16 4.64Q74.44 2.64 70.20 2.64L70.20 2.64ZM83.40 28.24L83.40 0.24L94.80 0.24Q99.24 0.24 102.64 2.02Q106.04 3.80 107.92 6.98Q109.80 10.16 109.80 14.24L109.80 14.24Q109.80 18.32 107.92 21.50Q106.04 24.68 102.64 26.46Q99.24 28.24 94.80 28.24L94.80 28.24L83.40 28.24ZM86.36 25.68L94.64 25.68Q98.32 25.68 101.08 24.22Q103.84 22.76 105.36 20.18Q106.88 17.60 106.88 14.24L106.88 14.24Q106.88 10.88 105.36 8.30Q103.84 5.72 101.08 4.26Q98.32 2.80 94.64 2.80L94.64 2.80L86.36 2.80L86.36 25.68Z" transform="translate(0 65) scale(1)"></path></svg>